<?xml version="1.0" encoding="UTF-8" standalone="no"?>
<!-- Created with Inkscape (http://www.inkscape.org/) -->

<svg
   version="1.1"
   id="svg1"
   width="3450.2666"
   height="1618.6666"
   viewBox="0 0 3450.2666 1618.6666"
   xmlns="http://www.w3.org/2000/svg"
   xmlns:svg="http://www.w3.org/2000/svg">
  <defs
     id="defs1">
    <linearGradient
       x1="0"
       y1="0"
       x2="1"
       y2="0"
       gradientUnits="userSpaceOnUse"
       gradientTransform="matrix(25876.9,0,0,-25876.9,11021.5,17500)"
       spreadMethod="pad"
       id="linearGradient9">
      <stop
         style="stop-opacity:1;stop-color:#fcf7bf"
         offset="0"
         id="stop3" />
      <stop
         style="stop-opacity:1;stop-color:#fcf7bf"
         offset="0"
         id="stop4" />
      <stop
         style="stop-opacity:1;stop-color:#bb9c58"
         offset="0.227907"
         id="stop5" />
      <stop
         style="stop-opacity:1;stop-color:#fbc56d"
         offset="0.413953"
         id="stop6" />
      <stop
         style="stop-opacity:1;stop-color:#eeb75f"
         offset="0.586047"
         id="stop7" />
      <stop
         style="stop-opacity:1;stop-color:#fbf6bc"
         offset="0.772093"
         id="stop8" />
      <stop
         style="stop-opacity:1;stop-color:#c2a15a"
         offset="1"
         id="stop9" />
    </linearGradient>
    <clipPath
       clipPathUnits="userSpaceOnUse"
       id="clipPath9">
      <path
         d="m 34723,17095.5 c -216.3,-70.5 -404.5,-143.5 -580.9,-216.4 -70.5,-28.2 -138.7,-56.4 -204.5,-84.6 -649.1,-279.9 -1293.5,-501 -1937.9,-663.2 -802,-202.3 -1604,-308.1 -2420.1,-308.1 -1335.8,0 -2631.6,265.7 -3894.6,665.5 -658.5,209.3 -1309.9,456.3 -1952,722 -404.5,167 -806.6,343.4 -1206.4,519.8 -284.6,129.4 -566.8,256.3 -849,385.7 -80,35.2 -157.6,70.5 -235.2,105.8 -945.5,430.4 -1900.3,867.9 -2876.3,1248.8 1037.2,-439.7 2046.1,-964.2 3045.6,-1491 L 19930.2,14449.7 16901,20707.9 c 1796.8,-338.7 3485.4,-1063.1 5145.8,-1815.6 284.6,-129.4 569.1,-258.7 851.4,-385.7 235.1,-108.2 468,-214 703.1,-317.5 649.1,-289.3 1300.6,-566.8 1954.4,-811.4 1865,-691.4 3767.6,-1110 5827.8,-754.9 766.7,129.3 1554.5,369.2 2370.6,738.4 1001.9,456.3 2046.1,1112.5 3144.4,2015.6 -1354.7,-755 -2638.8,-1157.2 -3878.2,-1310 -214,183.4 -451.5,371.6 -710.2,566.8 l -428,322.2 c -1272.4,966.6 -1625.2,1502.8 -1625.2,2208.3 0,919.6 689.1,1578.1 1822.7,1578.1 997.2,0 1441.7,-461 1672.1,-750.3 322.2,-399.8 397.5,-874.8 397.5,-1013.6 0,-183.4 47,-275.1 152.9,-275.1 122.3,0 169.3,122.3 169.3,460.9 0,1194.7 61.1,1639.3 61.1,1839.1 0,105.9 -77.6,152.9 -214,183.5 -399.8,108.2 -1041.8,261 -2039,261 -2130.7,0 -3539.5,-1211.2 -3539.5,-2897.4 0,-813.7 249.3,-1554.6 896.1,-2337.7 -1493.4,284.6 -2944.5,818.5 -4407.3,1385.2 l -515.1,3497.1 c -47,322.3 -138.7,475.1 -277.5,475.1 -136.3,0 -214,-122.3 -336.3,-369.2 l -1274.6,-2676.4 c -2039.1,745.6 -4141.6,1338.2 -6432.3,1232.4 l -646.7,1338.1 c -197.5,397.5 -289.3,475.1 -413.9,475.1 -122.3,0 -214,-138.7 -258.7,-399.8 l -242.2,-1589.8 c -1208.9,-225.8 -2474.1,-660.9 -3810,-1380.5 1302.9,493.8 2532.9,703.2 3708.8,712.6 l -1175.9,-7735.1 c -75.2,-519.8 -197.5,-1117.1 -627.9,-1211.2 -230.5,-44.6 -336.3,-44.6 -458.6,-44.6 -152.9,0 -247,-30.7 -247,-108.3 0,-136.3 124.7,-167 277.6,-167 489.1,0 1225.3,44.8 1516.9,44.8 275.1,0 964.2,-44.8 1608.6,-44.8 230.5,0 369.3,30.7 369.3,167 0,77.6 -108.2,108.3 -230.5,108.3 -152.9,0 -369.3,14 -644.4,75.2 -261.1,63.5 -458.6,199.9 -458.6,491.5 0,244.6 14.1,444.5 44.7,719.7 l 797.2,6100.6 h 61.2 c 536.2,-1150.1 1455.7,-3080.9 1594.5,-3403.1 183.4,-428 1394.6,-2772.8 1761.5,-3478.3 246.9,-461 399.8,-766.7 536.2,-766.7 138.8,0 216.4,138.7 569.2,858.4 l 2410.6,5023.4 c 451.5,-237.5 900.7,-472.7 1349.9,-696.1 l 559.7,-4113.3 c 61.2,-428 16.5,-628 -75.3,-658.5 -108.1,-47 -169.3,-91.8 -169.3,-169.3 0,-91.8 91.8,-136.5 444.5,-167 613.8,-47 2728.1,-91.8 3111.5,-91.8 214,0 399.8,44.8 399.8,167 0,91.8 -108.2,108.3 -247,108.3 -197.5,0 -505.6,14 -950.1,152.8 -458.6,138.7 -611.5,583.2 -750.2,1547.5 l -343.4,2335.3 c 2130.7,-834.9 4341.5,-1213.5 6817.9,-402.1 517.4,-604.5 632.6,-1112.4 632.6,-1641.6 0,-811.3 -674.9,-1747.4 -2055.4,-1747.4 -950.2,0 -1853.3,413.9 -2191.9,1547.5 -75.3,261.1 -136.4,583.2 -136.4,783.2 0,122.3 -16.5,261 -152.9,261 -124.7,0 -169.3,-169.3 -185.8,-399.8 -14.1,-244.6 -75.3,-1164.1 -75.3,-2008.5 0,-336.3 44.7,-413.9 291.7,-519.7 658.5,-291.6 1347.6,-399.8 2236.5,-399.8 811.4,0 1669.8,138.8 2436.5,630.3 1105.4,719.6 1441.7,1778 1441.7,2664.6 0,599.7 -110.6,1133.5 -371.6,1648.6 785.5,430.3 1599.2,985.4 2445.9,1681.5 -745.6,-413.9 -1469.9,-729 -2175.5,-959.5 z"
         transform="translate(0,2.5e-4)"
         id="path9" />
    </clipPath>
  </defs>
  <g
     id="g1"
     transform="translate(-1469.5333,-1524.0001)">
    <g
       id="group-R5">
      <path
         id="path3"
         d="m 34723,17095.5 c -216.3,-70.5 -404.5,-143.5 -580.9,-216.4 -70.5,-28.2 -138.7,-56.4 -204.5,-84.6 -649.1,-279.9 -1293.5,-501 -1937.9,-663.2 -802,-202.3 -1604,-308.1 -2420.1,-308.1 -1335.8,0 -2631.6,265.7 -3894.6,665.5 -658.5,209.3 -1309.9,456.3 -1952,722 -404.5,167 -806.6,343.4 -1206.4,519.8 -284.6,129.4 -566.8,256.3 -849,385.7 -80,35.2 -157.6,70.5 -235.2,105.8 -945.5,430.4 -1900.3,867.9 -2876.3,1248.8 1037.2,-439.7 2046.1,-964.2 3045.6,-1491 L 19930.2,14449.7 16901,20707.9 c 1796.8,-338.7 3485.4,-1063.1 5145.8,-1815.6 284.6,-129.4 569.1,-258.7 851.4,-385.7 235.1,-108.2 468,-214 703.1,-317.5 649.1,-289.3 1300.6,-566.8 1954.4,-811.4 1865,-691.4 3767.6,-1110 5827.8,-754.9 766.7,129.3 1554.5,369.2 2370.6,738.4 1001.9,456.3 2046.1,1112.5 3144.4,2015.6 -1354.7,-755 -2638.8,-1157.2 -3878.2,-1310 -214,183.4 -451.5,371.6 -710.2,566.8 l -428,322.2 c -1272.4,966.6 -1625.2,1502.8 -1625.2,2208.3 0,919.6 689.1,1578.1 1822.7,1578.1 997.2,0 1441.7,-461 1672.1,-750.3 322.2,-399.8 397.5,-874.8 397.5,-1013.6 0,-183.4 47,-275.1 152.9,-275.1 122.3,0 169.3,122.3 169.3,460.9 0,1194.7 61.1,1639.3 61.1,1839.1 0,105.9 -77.6,152.9 -214,183.5 -399.8,108.2 -1041.8,261 -2039,261 -2130.7,0 -3539.5,-1211.2 -3539.5,-2897.4 0,-813.7 249.3,-1554.6 896.1,-2337.7 -1493.4,284.6 -2944.5,818.5 -4407.3,1385.2 l -515.1,3497.1 c -47,322.3 -138.7,475.1 -277.5,475.1 -136.3,0 -214,-122.3 -336.3,-369.2 l -1274.6,-2676.4 c -2039.1,745.6 -4141.6,1338.2 -6432.3,1232.4 l -646.7,1338.1 c -197.5,397.5 -289.3,475.1 -413.9,475.1 -122.3,0 -214,-138.7 -258.7,-399.8 l -242.2,-1589.8 c -1208.9,-225.8 -2474.1,-660.9 -3810,-1380.5 1302.9,493.8 2532.9,703.2 3708.8,712.6 l -1175.9,-7735.1 c -75.2,-519.8 -197.5,-1117.1 -627.9,-1211.2 -230.5,-44.6 -336.3,-44.6 -458.6,-44.6 -152.9,0 -247,-30.7 -247,-108.3 0,-136.3 124.7,-167 277.6,-167 489.1,0 1225.3,44.8 1516.9,44.8 275.1,0 964.2,-44.8 1608.6,-44.8 230.5,0 369.3,30.7 369.3,167 0,77.6 -108.2,108.3 -230.5,108.3 -152.9,0 -369.3,14 -644.4,75.2 -261.1,63.5 -458.6,199.9 -458.6,491.5 0,244.6 14.1,444.5 44.7,719.7 l 797.2,6100.6 h 61.2 c 536.2,-1150.1 1455.7,-3080.9 1594.5,-3403.1 183.4,-428 1394.6,-2772.8 1761.5,-3478.3 246.9,-461 399.8,-766.7 536.2,-766.7 138.8,0 216.4,138.7 569.2,858.4 l 2410.6,5023.4 c 451.5,-237.5 900.7,-472.7 1349.9,-696.1 l 559.7,-4113.3 c 61.2,-428 16.5,-628 -75.3,-658.5 -108.1,-47 -169.3,-91.8 -169.3,-169.3 0,-91.8 91.8,-136.5 444.5,-167 613.8,-47 2728.1,-91.8 3111.5,-91.8 214,0 399.8,44.8 399.8,167 0,91.8 -108.2,108.3 -247,108.3 -197.5,0 -505.6,14 -950.1,152.8 -458.6,138.7 -611.5,583.2 -750.2,1547.5 l -343.4,2335.3 c 2130.7,-834.9 4341.5,-1213.5 6817.9,-402.1 517.4,-604.5 632.6,-1112.4 632.6,-1641.6 0,-811.3 -674.9,-1747.4 -2055.4,-1747.4 -950.2,0 -1853.3,413.9 -2191.9,1547.5 -75.3,261.1 -136.4,583.2 -136.4,783.2 0,122.3 -16.5,261 -152.9,261 -124.7,0 -169.3,-169.3 -185.8,-399.8 -14.1,-244.6 -75.3,-1164.1 -75.3,-2008.5 0,-336.3 44.7,-413.9 291.7,-519.7 658.5,-291.6 1347.6,-399.8 2236.5,-399.8 811.4,0 1669.8,138.8 2436.5,630.3 1105.4,719.6 1441.7,1778 1441.7,2664.6 0,599.7 -110.6,1133.5 -371.6,1648.6 785.5,430.3 1599.2,985.4 2445.9,1681.5 -745.6,-413.9 -1469.9,-729 -2175.5,-959.5"
         style="fill:url(#linearGradient9);fill-opacity:1;fill-rule:nonzero;stroke:none;opacity:1"
         transform="matrix(0.13333333,0,0,-0.13333333,0,4666.6667)"
         clip-path="url(#clipPath9)" />
    </g>
  </g>
</svg>
